<svg width="63" height="65" viewBox="0 0 63 65" fill="none" xmlns="http://www.w3.org/2000/svg">
<path d="M0.537109 24.5717C0.537109 11.3758 10.9002 0.678345 23.6838 0.678345H39.3904C52.174 0.678345 62.5371 11.3758 62.5371 24.5717V40.785C62.5371 53.9809 52.174 64.6783 39.3904 64.6783H23.6838C10.9002 64.6783 0.537109 53.9809 0.537109 40.785V24.5717Z" fill="#F98329"/>
<path d="M22.047 20.9535L30.975 39.9999C31.3497 40.7736 31.5371 41.3539 31.5371 41.7407C31.5371 42.5599 30.8978 43.2995 29.6192 43.9594C28.8697 44.3463 28.2745 44.5397 27.8336 44.5397C27.4148 44.5397 27.0621 44.4373 26.7755 44.2325C26.511 44.0277 26.3126 43.8115 26.1803 43.5839C26.0701 43.3564 25.9048 43.0151 25.6843 42.5599L23.9648 38.8735H14.8054L13.0859 42.5599C12.8655 43.0151 12.6891 43.345 12.5568 43.5498C12.4466 43.7546 12.2482 43.9708 11.9616 44.1983C11.6971 44.4031 11.3444 44.5055 10.9035 44.5055C10.4847 44.5055 9.90049 44.3121 9.15098 43.9253C7.8724 43.2881 7.23311 42.5599 7.23311 41.7407C7.23311 41.3539 7.42049 40.7736 7.79524 39.9999L16.7232 20.9194C16.9657 20.396 17.3295 19.9751 17.8144 19.6565C18.3215 19.3379 18.8505 19.1786 19.4016 19.1786C20.592 19.1786 21.4738 19.7703 22.047 20.9535ZM19.3686 29.1455L17.1862 33.8218H21.584L19.3686 29.1455Z" fill="white"/>
<path d="M45.645 29.1114H51.4647C52.6551 29.1569 53.3826 29.4755 53.6471 30.0671C53.8675 30.4995 53.9777 31.1367 53.9777 31.9786V39.4879C53.9777 40.2161 53.6691 40.9102 53.0519 41.5701C51.2002 43.5498 48.4226 44.5397 44.7191 44.5397C41.4345 44.5397 38.5797 43.2654 36.1548 40.7167C33.7299 38.1454 32.5175 35.0506 32.5175 31.4325C32.5175 27.8143 33.752 24.7992 36.221 22.3871C38.6899 19.9523 41.5998 18.7349 44.9506 18.7349C47.5518 18.7349 50.0098 19.6223 52.3244 21.3973C52.9196 21.8524 53.2172 22.3644 53.2172 22.9333C53.2172 23.4794 52.9637 24.1166 52.4567 24.8447C51.597 26.0508 50.8144 26.6538 50.109 26.6538C49.6901 26.6538 49.0178 26.3466 48.0919 25.7322C47.166 25.0951 46.0638 24.7765 44.7852 24.7765C43.1098 24.7765 41.6218 25.3909 40.3212 26.6197C39.0206 27.8257 38.3703 29.4186 38.3703 31.3983C38.3703 33.3553 39.0316 35.0279 40.3543 36.4159C41.677 37.7813 43.176 38.4639 44.8513 38.4639C46.0638 38.4639 47.155 38.2591 48.125 37.8495V34.129H45.5127C44.8293 34.129 44.3443 34.038 44.0578 33.8559C43.7712 33.6739 43.5838 33.4122 43.4956 33.0709C43.4074 32.7068 43.3633 32.2289 43.3633 31.6373C43.3633 31.0229 43.4074 30.5336 43.4956 30.1695C43.6058 29.8055 43.7932 29.5551 44.0578 29.4186C44.4546 29.2138 44.9836 29.1114 45.645 29.1114Z" fill="white"/>
</svg>
