<svg width="250" height="150" viewBox="0 0 250 150" fill="none" xmlns="http://www.w3.org/2000/svg">
<circle opacity="0.5" cx="125.5" cy="70" r="69" stroke="#F98329" stroke-width="2"/>
<circle cx="125.5" cy="70" r="49.5122" fill="#FEEADB"/>
<path d="M109.565 70L120.948 81.3821L143.712 58.6179" stroke="#F98329" stroke-width="8" stroke-linecap="round" stroke-linejoin="round"/>
<path d="M236.52 100.793C236.738 99.7271 238.262 99.7271 238.48 100.793L239.404 105.316C239.484 105.709 239.791 106.016 240.184 106.096L244.707 107.02C245.773 107.238 245.773 108.762 244.707 108.98L240.184 109.904C239.791 109.984 239.484 110.291 239.404 110.684L238.48 115.207C238.262 116.273 236.738 116.273 236.52 115.207L235.596 110.684C235.516 110.291 235.209 109.984 234.816 109.904L230.293 108.98C229.227 108.762 229.227 107.238 230.293 107.02L234.816 106.096C235.209 106.016 235.516 105.709 235.596 105.316L236.52 100.793Z" fill="#F98329"/>
<path opacity="0.2" d="M33.5203 134.793C33.7382 133.727 35.2618 133.727 35.4797 134.793L36.0648 137.656C36.145 138.048 36.4517 138.355 36.8443 138.435L39.7065 139.02C40.7729 139.238 40.7729 140.762 39.7065 140.98L36.8443 141.565C36.4517 141.645 36.145 141.952 36.0648 142.344L35.4797 145.207C35.2618 146.273 33.7382 146.273 33.5203 145.207L32.9352 142.344C32.855 141.952 32.5483 141.645 32.1557 141.565L29.2935 140.98C28.2271 140.762 28.2271 139.238 29.2935 139.02L32.1557 138.435C32.5483 138.355 32.855 138.048 32.9352 137.656L33.5203 134.793Z" fill="#F98329"/>
<path opacity="0.2" d="M215.52 16.7935C215.738 15.7271 217.262 15.7271 217.48 16.7935L218.065 19.6557C218.145 20.0483 218.452 20.355 218.844 20.4352L221.707 21.0203C222.773 21.2382 222.773 22.7618 221.707 22.9797L218.844 23.5648C218.452 23.645 218.145 23.9517 218.065 24.3443L217.48 27.2065C217.262 28.2729 215.738 28.2729 215.52 27.2065L214.935 24.3443C214.855 23.9517 214.548 23.645 214.156 23.5648L211.293 22.9797C210.227 22.7618 210.227 21.2382 211.293 21.0203L214.156 20.4352C214.548 20.355 214.855 20.0483 214.935 19.6557L215.52 16.7935Z" fill="#F98329"/>
<path d="M15.5203 18.7935C15.7382 17.7271 17.2618 17.7271 17.4797 18.7935L19.083 26.6375C19.1632 27.03 19.47 27.3368 19.8625 27.417L27.7065 29.0203C28.7729 29.2382 28.7729 30.7618 27.7065 30.9797L19.8625 32.583C19.47 32.6632 19.1632 32.97 19.083 33.3625L17.4797 41.2065C17.2618 42.2729 15.7382 42.2729 15.5203 41.2065L13.917 33.3625C13.8368 32.97 13.53 32.6632 13.1375 32.583L5.29346 30.9797C4.22713 30.7618 4.22712 29.2382 5.29346 29.0203L13.1375 27.417C13.53 27.3368 13.8368 27.03 13.917 26.6375L15.5203 18.7935Z" fill="#F98329"/>
</svg>
